<?xml version="1.0" encoding="UTF-8"?>
<svg version="1.1" xmlns="http://www.w3.org/2000/svg" width="96" height="96">
<path d="M0 0 C2.85566912 1.71585269 5.19790398 3.71005464 7.375 6.25 C9.85394956 5.14824464 11.6995446 3.983707 13.8125 2.25 C20.31733595 -2.82694513 27.43968963 -2.45176214 35.375 -1.75 C42.03459333 -0.06914417 46.56047447 4.71378322 50.375 10.25 C53.6716686 16.8433372 53.54162741 24.93720185 51.640625 31.96484375 C45.54663968 45.58799209 31.69739192 56.46759101 19.6875 64.6875 C19.0574707 65.12529785 18.42744141 65.5630957 17.77832031 66.01416016 C14.04381459 68.49759662 10.99052614 70.18694636 6.375 70.25 C2.34480911 68.5298723 -1.08452755 65.81503617 -4.625 63.25 C-5.42164063 62.67765625 -5.42164063 62.67765625 -6.234375 62.09375 C-18.02713287 53.55803954 -30.85655975 43.55532074 -35.625 29.25 C-36.23740072 21.34902681 -36.79847714 13.69162752 -31.625 7.25 C-23.28114482 -1.5119189 -11.67050982 -5.58250375 0 0 Z " fill="#F44437" transform="translate(39.625,13.75)"/>
<path d="M0 0 C2.15528184 3.23292276 2.80814801 5.6592724 3.7265625 9.41796875 C4.190625 11.29838867 4.190625 11.29838867 4.6640625 13.21679688 C4.98450289 14.54033363 5.30481374 15.86390175 5.625 17.1875 C5.95258321 18.52291948 6.28070213 19.85820767 6.609375 21.19335938 C7.41153575 24.46098479 8.20817783 27.72985671 9 31 C11.10850329 27.83724506 12.28830876 24.86528462 13.625 21.3125 C14.29402344 19.54326172 14.29402344 19.54326172 14.9765625 17.73828125 C15.31429687 16.83464844 15.65203125 15.93101563 16 15 C18.30350423 17.81324326 19.61632717 20.28144037 20.6875 23.75 C21.06455078 24.94882812 21.06455078 24.94882812 21.44921875 26.171875 C21.63097656 26.77515625 21.81273437 27.3784375 22 28 C22.66 28 23.32 28 24 28 C24.33 26.68 24.66 25.36 25 24 C25.99580078 23.90912109 25.99580078 23.90912109 27.01171875 23.81640625 C32.54248286 23.30595258 32.54248286 23.30595258 38 22.3125 C38.66 22.209375 39.32 22.10625 40 22 C40.99 22.99 40.99 22.99 42 24 C41.625 26.625 41.625 26.625 41 29 C39.34385343 29.38218767 37.67542976 29.71395102 36 30 C35.67 29.67 35.34 29.34 35 29 C32.66702567 28.95907063 30.33294775 28.95758277 28 29 C26.02 33.95 26.02 33.95 24 39 C23.34 39 22.68 39 22 39 C19.525 33.06 19.525 33.06 17 27 C14.36 33.93 11.72 40.86 9 48 C7.01403247 45.02104871 6.34881809 43.02675709 5.4921875 39.59765625 C5.22792969 38.54255859 4.96367188 37.48746094 4.69140625 36.40039062 C4.42199219 35.29888672 4.15257813 34.19738281 3.875 33.0625 C3.59785156 31.96486328 3.32070313 30.86722656 3.03515625 29.73632812 C1 21.52051262 1 21.52051262 1 17 C0.34 17 -0.32 17 -1 17 C-1.16435547 17.89138672 -1.16435547 17.89138672 -1.33203125 18.80078125 C-2.57497728 25.29845847 -4.18614884 31.6394286 -6 38 C-8.80561393 36.59719304 -9.00680507 34.9490995 -10.125 32.0625 C-10.65480469 30.71865234 -10.65480469 30.71865234 -11.1953125 29.34765625 C-12 27 -12 27 -12 25 C-12.66 25 -13.32 25 -14 25 C-14 25.99 -14 26.98 -14 28 C-20.75 28.125 -20.75 28.125 -23 27 C-23 26.01 -23 25.02 -23 24 C-21.02 24 -19.04 24 -17 24 C-16.01 21.03 -15.02 18.06 -14 15 C-13.34 15 -12.68 15 -12 15 C-10.68 17.97 -9.36 20.94 -8 24 C-5.67484017 20.51226026 -4.92635349 17.14161083 -4 13.125 C-2.94373178 8.5945996 -1.87904476 4.27818227 0 0 Z " fill="#FEDFE1" transform="translate(30,22)"/>
</svg>
